<svg width="140" height="30" viewBox="0 0 140 30" fill="none" xmlns="http://www.w3.org/2000/svg">
<rect width="140" height="29.9991"/>
<path d="M120.345 10.1511C120.608 9.95044 120.862 9.77101 121.099 9.57034C123.932 7.141 127.116 6.33594 130.622 7.8044C134.128 9.27287 135.58 12.2122 135.672 15.7912C135.804 20.4658 135.705 25.145 135.705 29.9116H131.364V28.6769C131.364 24.7814 131.375 20.886 131.364 16.9929C131.364 14.1764 129.588 12.2712 127.036 12.2995C124.484 12.3278 122.761 14.2283 122.758 17.0496C122.758 20.9057 122.758 24.7618 122.758 28.6179V29.9447H117.975C117.954 29.6755 117.911 29.3781 117.909 29.083C117.909 24.9538 117.949 20.8199 117.89 16.6931C117.845 13.5083 115.029 11.5181 112.115 12.5639C110.29 13.2202 109.337 14.6226 109.308 16.5255C109.242 20.7325 109.271 24.942 109.261 29.1491V29.9211H104.922C104.922 29.3804 104.922 28.8799 104.922 28.3794C104.957 23.9764 104.856 19.5663 105.071 15.1727C105.245 11.5487 107.269 8.94707 110.635 7.66511C114.002 6.38316 117.123 7.19294 119.779 9.65297C119.949 9.81115 120.128 9.96224 120.345 10.1511Z" fill="#363636"/>
<path d="M32.4694 29.9425C30.5075 29.9425 28.7133 29.9803 26.9237 29.9047C26.6428 29.9047 26.2674 29.416 26.1281 29.0737C25.3655 27.2251 24.629 25.3624 23.9608 23.4784C23.7011 22.7418 23.3635 22.4373 22.5443 22.4515C19.3193 22.5034 16.0928 22.5034 12.8647 22.4515C12.0408 22.4515 11.6843 22.73 11.434 23.4714C10.7801 25.3223 10.0411 27.1496 9.37535 28.984C9.16523 29.5695 8.8772 29.8906 8.19491 29.874C6.59188 29.8386 4.98885 29.8622 3.1875 29.8622C3.7305 28.3135 4.1649 26.9395 4.68902 25.6127C7.5441 18.3333 10.4102 11.0618 13.2873 3.7982C13.5234 3.21506 13.802 2.65317 14.0782 2.08892C15.4522 -0.696908 19.9096 -0.64969 21.1844 1.95199C22.202 4.0272 23.0377 6.20156 23.9018 8.34052C26.6152 15.0737 29.3137 21.8156 31.9972 28.5661C32.1531 28.9462 32.264 29.3523 32.4694 29.9425ZM17.7706 6.54153L17.5015 6.49903C16.1416 10.3071 14.7794 14.1129 13.3888 18.0012H21.9494L17.7706 6.54153Z" fill="#DC2F2F"/>
<path d="M32.3126 18.4331C32.3007 15.4083 33.4905 12.5027 35.6204 10.3551C37.7504 8.20741 40.646 6.99358 43.6708 6.98045C49.9719 6.94032 55.2154 12.1744 55.1588 18.4543C55.1507 21.4573 53.9541 24.335 51.8307 26.4584C49.7072 28.5819 46.8296 29.7784 43.8266 29.7865C37.3719 29.8101 32.3315 24.8381 32.3126 18.4331ZM43.718 25.3457C47.5756 25.3457 50.7699 22.168 50.7109 18.3882C50.6765 16.5594 49.9361 14.8149 48.6445 13.5198C47.3529 12.2247 45.6104 11.4795 43.7817 11.4401C41.9324 11.4351 40.1563 12.1628 38.8422 13.4641C37.5281 14.7654 36.783 16.5342 36.7699 18.3835C36.7618 19.2988 36.9358 20.2067 37.2819 21.0541C37.628 21.9016 38.1393 22.6717 38.7859 23.3197C39.4325 23.9676 40.2016 24.4804 41.0483 24.8283C41.8951 25.1761 42.8026 25.352 43.718 25.3457Z" fill="#363636"/>
<path d="M90.3879 7.1374C91.885 7.12862 93.369 7.41714 94.7537 7.98622C96.1385 8.55531 97.3965 9.39363 98.4548 10.4526C99.5131 11.5116 100.351 12.7701 100.919 14.1552C101.487 15.5403 101.775 17.0244 101.765 18.5215C101.774 20.7867 101.11 23.0036 99.8576 24.8909C98.6048 26.7781 96.8195 28.2506 94.7284 29.1215C92.6372 29.9923 90.3345 30.2222 88.1125 29.7821C85.8904 29.3419 83.8493 28.2515 82.248 26.6493C80.6467 25.047 79.5576 23.0052 79.1188 20.7829C78.6801 18.5605 78.9114 16.258 79.7836 14.1674C80.6557 12.0768 82.1293 10.2924 84.0174 9.04079C85.9054 7.78915 88.1227 7.12666 90.3879 7.1374ZM90.3407 11.5688C86.5208 11.5688 83.3147 14.7748 83.3549 18.5617C83.3976 20.3911 84.1447 22.1334 85.4404 23.4256C86.7361 24.7178 88.4805 25.4601 90.31 25.4979C94.0874 25.5428 97.3123 22.3532 97.3289 18.5404C97.3239 16.6901 96.5855 14.9172 95.2756 13.6104C93.9656 12.3036 92.191 11.5694 90.3407 11.5688Z" fill="#363636"/>
<path d="M66.3123 29.8561C64.4084 29.9099 62.525 29.4517 60.8586 28.5293C59.402 27.7077 58.2995 26.5745 57.858 24.9101C57.4661 23.4298 57.9146 22.2706 59.0384 21.8056C60.2047 21.3169 61.1939 21.7607 62.0249 23.1465C63.6398 25.8379 65.8118 26.8177 68.5409 26.0858C69.8866 25.7246 70.7767 24.8818 70.8735 23.8808C70.9868 22.7003 70.4249 21.7749 68.9848 21.2319C67.3322 20.6133 65.6064 20.2072 63.9443 19.6217C62.8016 19.218 61.6259 18.8002 60.6131 18.158C56.9915 15.8609 57.0883 10.9455 60.7453 8.54217C64.0246 6.38669 70.236 6.61806 73.2438 9.10878C73.9399 9.73261 74.4945 10.4981 74.8704 11.354C75.1018 11.8182 75.1541 12.3514 75.0173 12.8517C74.8806 13.3521 74.5644 13.7846 74.1291 14.0666C73.6732 14.3453 73.1408 14.4726 72.6081 14.4302C72.0755 14.3878 71.5699 14.1779 71.1639 13.8305C70.6209 13.3253 70.1865 12.7044 69.686 12.1496C69.0603 11.4319 68.2233 10.9311 67.2952 10.719C66.3671 10.5069 65.3956 10.5945 64.5204 10.9691C63.687 11.3138 62.9811 11.8356 62.9126 12.8272C62.8441 13.8187 63.4627 14.4798 64.3126 14.8056C65.7055 15.325 67.1575 15.6815 68.5622 16.1654C70.0802 16.6895 71.6313 17.1499 73.062 17.87C77.7554 20.2309 76.3271 26.3408 73.4279 28.2012C71.3645 29.4949 69.1193 29.8443 66.3123 29.8561Z" fill="#363636"/>
</svg>
