<?xml version="1.0" encoding="UTF-8"?>
<svg id="Layer_1" data-name="Layer 1" xmlns="http://www.w3.org/2000/svg" xmlns:xlink="http://www.w3.org/1999/xlink" viewBox="0 0 289.35 85.44">
  <defs>
    <style>
      .cls-1 {
        isolation: isolate;
      }

      .cls-2 {
        fill: none;
      }

      .cls-2, .cls-3, .cls-4 {
        stroke-width: 0px;
      }

      .cls-3, .cls-4 {
        fill: #fff;
      }

      .cls-4 {
        fill-rule: evenodd;
      }

      .cls-5 {
        clip-path: url(#clippath);
      }
    </style>
    <clipPath id="clippath">
      <rect class="cls-2" x="2.35" y="12.38" width="287" height="64"/>
    </clipPath>
  </defs>
  <g class="cls-5">
    <g>
      <g class="cls-1">
        <path class="cls-3" d="M5.05,59.38V9.83h20.97c5.27,0,9.1.45,11.49,1.33,2.39.89,4.3,2.47,5.74,4.75,1.44,2.28,2.15,4.88,2.15,7.81,0,3.72-1.09,6.79-3.26,9.21-2.18,2.42-5.43,3.95-9.76,4.58,2.15,1.26,3.93,2.65,5.33,4.16,1.4,1.51,3.29,4.19,5.67,8.04l6.02,9.67h-11.91l-7.2-10.78c-2.56-3.85-4.31-6.28-5.25-7.28-.94-1-1.94-1.69-3-2.06-1.05-.37-2.73-.56-5.01-.56h-2.02v20.68H5.05ZM15.01,30.79h7.37c4.78,0,7.76-.2,8.95-.61,1.19-.41,2.12-1.1,2.79-2.1.67-.99,1.01-2.23,1.01-3.72,0-1.67-.44-3.01-1.33-4.04-.89-1.02-2.14-1.67-3.75-1.94-.81-.11-3.23-.17-7.27-.17h-7.77v12.57Z"/>
        <path class="cls-3" d="M54.79,59.38V9.83h36.58v8.38h-26.62v10.98h24.77v8.35h-24.77v13.48h27.56v8.35h-37.53Z"/>
        <path class="cls-3" d="M123.72,41.17v-8.35h21.47v19.74c-2.09,2.03-5.11,3.81-9.07,5.36-3.96,1.54-7.97,2.31-12.03,2.31-5.16,0-9.66-1.09-13.5-3.26-3.84-2.17-6.72-5.28-8.65-9.33-1.93-4.04-2.89-8.44-2.89-13.2,0-5.16,1.08-9.75,3.23-13.76,2.15-4.01,5.31-7.09,9.46-9.23,3.16-1.64,7.1-2.47,11.81-2.47,6.13,0,10.91,1.29,14.35,3.87,3.44,2.58,5.66,6.15,6.65,10.7l-9.9,1.86c-.7-2.43-2-4.35-3.92-5.76-1.92-1.41-4.31-2.11-7.19-2.11-4.35,0-7.81,1.39-10.38,4.16-2.57,2.77-3.85,6.88-3.85,12.34,0,5.88,1.3,10.29,3.9,13.23,2.6,2.94,6.01,4.41,10.23,4.41,2.09,0,4.18-.41,6.28-1.23,2.1-.82,3.9-1.82,5.4-2.99v-6.29h-11.41Z"/>
        <path class="cls-3" d="M154.38,59.38V9.83h36.58v8.38h-26.62v10.98h24.77v8.35h-24.77v13.48h27.57v8.35h-37.53Z"/>
        <path class="cls-3" d="M200.46,59.38V9.83h9.69l20.19,33.09V9.83h9.26v49.55h-10l-19.89-32.31v32.31h-9.26Z"/>
        <path class="cls-3" d="M261.24,59.38V18.22h-14.64v-8.38h39.21v8.38h-14.61v41.17h-9.96Z"/>
      </g>
      <path class="cls-4" d="M199.18,74.28c.04.33.12.62.25.87l.22.29h-2.04l.49-.3c.35-.25.71-.54,1.08-.86ZM163.63,74.28c.04.33.12.62.24.87l.22.29h-2.04l.49-.3c.35-.25.72-.54,1.09-.86ZM199.18,69.23v4.1c-.57.49-1.08.73-1.51.73-.39,0-.69-.12-.91-.35-.29-.31-.43-.66-.43-1.06,0-.48.17-.95.51-1.43.51-.71,1.29-1.37,2.34-1.99ZM163.63,69.23v4.1c-.57.49-1.08.73-1.51.73-.39,0-.7-.12-.91-.35-.29-.31-.43-.66-.43-1.06,0-.48.17-.95.51-1.43.51-.71,1.29-1.37,2.34-1.99ZM56.76,67.48l2.96,7.97h-5.86l2.9-7.97ZM37.32,67.48l2.96,7.97h-5.86l2.9-7.97ZM17.88,67.48l2.96,7.97h-5.86l2.9-7.97ZM128.41,65.25c.23,0,.43.07.62.22.19.14.32.35.4.61.08.26.12.89.12,1.9v5.44c0,.86-.07,1.4-.21,1.62l-.69.4h-1.48l-.58-.28c-.17-.24-.26-.82-.26-1.74v-6.56c.64-1.07,1.34-1.61,2.08-1.61ZM281.64,65.2c.25,0,.47.07.66.22.19.14.32.36.41.66s.13.99.13,2.08v5.26c0,.85-.08,1.39-.23,1.62-.12.17-.27.3-.45.4h0s-1.81,0-1.81,0l-.77-.36c-.15-.23-.22-.78-.22-1.66v-6.57c.39-.55.78-.96,1.16-1.24.38-.27.76-.41,1.13-.41ZM274.48,65.19c.24,0,.45.08.66.24.2.16.35.38.44.65.09.28.13.97.13,2.08v5.26c0,.72-.03,1.18-.1,1.39-.07.21-.2.4-.39.55l-.25.08h-1.8l-.68-.32c-.17-.28-.25-.84-.25-1.71v-6.57c.46-.65.89-1.12,1.3-1.39.29-.18.6-.28.95-.28ZM259.64,64.42c.36,0,.66.09.88.28.32.25.56.66.73,1.21.17.55.25,1.57.25,3.06,0,2.52-.09,4.2-.26,5.03-.11.53-.34.95-.68,1.24l-.65.22h-.89c-.18-.09-.35-.21-.5-.37-.31-.32-.52-.79-.61-1.41-.12-.81-.18-1.68-.18-2.62,0-1.76.05-3.14.15-4.13.1-.99.31-1.65.62-1.99.32-.34.7-.5,1.14-.5ZM218.74,64.34c.3,0,.55.08.73.24.32.27.56.67.71,1.19.15.52.23,1.49.23,2.89h-3.54v-.46c0-1.35.26-2.42.77-3.19.29-.44.66-.67,1.11-.67ZM114.85,64.34c.3,0,.55.08.73.24.32.27.56.67.71,1.19.15.52.23,1.49.23,2.89h-3.54v-.46c0-1.35.26-2.42.77-3.19.29-.44.66-.67,1.11-.67ZM89.58,64.34c.3,0,.55.08.73.24.32.27.56.67.71,1.19s.23,1.49.23,2.89h-3.54v-.46c0-1.35.26-2.42.77-3.19.29-.44.65-.67,1.11-.67ZM101.64,64.3c.5,0,.9.21,1.17.63.39.57.59,1.63.59,3.19,0,1.39-.17,2.32-.52,2.8-.35.48-.78.72-1.3.72-.47,0-.88-.24-1.22-.73-.34-.49-.51-1.38-.51-2.68,0-1.61.17-2.66.52-3.17.35-.51.77-.77,1.28-.77ZM1.36,47.85h287.76v27.59h-1.74l-.64-.27c-.17-.23-.26-.81-.26-1.75v-5.01c0-1.31-.1-2.26-.29-2.86-.2-.6-.54-1.09-1.04-1.48-.5-.39-1.17-.58-2.01-.58-.69,0-1.36.17-2,.52-.64.35-1.3.92-2,1.7-.29-.75-.69-1.31-1.22-1.68-.53-.37-1.18-.55-1.97-.55-.68,0-1.3.15-1.87.44-.57.29-1.19.8-1.85,1.54v-1.61h-4.96v.48c.54.07.89.22,1.06.44.17.23.25.8.25,1.73v6.91c0,.94-.07,1.51-.22,1.7l-.71.32h-4.79l.28-.18c.32-.27.61-.57.87-.93.88-1.17,1.31-2.62,1.31-4.36,0-1.2-.24-2.31-.71-3.32-.47-1.01-1.16-1.79-2.08-2.34-.91-.55-1.9-.83-2.96-.83-1.76,0-3.15.65-4.16,1.96-1.01,1.3-1.52,2.83-1.52,4.59s.49,3.2,1.48,4.49c.25.32.52.61.82.85l.12.08h-5.98l.92-.78c.36-.4.68-.87.96-1.42l-.4-.31c-.52.56-.97.94-1.35,1.14-.38.2-.79.3-1.21.3-.65,0-1.21-.19-1.69-.56-.63-.52-1.13-1.3-1.5-2.35-.36-1.05-.55-2.15-.55-3.31,0-1.39.23-2.42.68-3.09.3-.44.65-.67,1.07-.67.27,0,.5.11.7.33.2.22.33.6.38,1.15.08.87.28,1.48.62,1.82.33.34.76.51,1.27.51s.88-.15,1.18-.44c.3-.3.45-.69.45-1.19,0-.79-.37-1.5-1.11-2.13-.74-.64-1.74-.96-3-.96-1.88,0-3.35.76-4.41,2.29-.89,1.27-1.33,2.73-1.33,4.4s.48,3.21,1.46,4.44c.24.31.51.58.79.81l.04.03h-4.96l.5-1.2c0-.6-.21-1.12-.63-1.54-.42-.43-.93-.64-1.54-.64s-1.11.21-1.53.64c-.42.43-.63.94-.63,1.54l.49,1.2h-3.83l.19-.15c.24-.25.44-.54.61-.87.34-.66.51-1.32.51-2,0-.75-.2-1.43-.6-2.03-.4-.61-1.24-1.34-2.52-2.21-1.28-.87-2.05-1.48-2.33-1.84-.17-.22-.26-.45-.26-.68,0-.31.13-.59.38-.83.25-.24.56-.36.91-.36.56,0,1.13.23,1.7.68.57.45,1.12,1.3,1.65,2.54h.44l-.2-4.18h-.44c-.21.31-.36.49-.46.56-.1.07-.22.1-.38.1-.15,0-.34-.07-.57-.2-.62-.32-1.25-.48-1.91-.48-1.22,0-2.16.38-2.81,1.15-.65.76-.97,1.62-.97,2.56,0,.86.29,1.65.86,2.37.39.49,1.25,1.2,2.58,2.12.9.62,1.49,1.08,1.74,1.39.26.31.39.67.39,1.09,0,.37-.13.68-.4.94l-.94.35h-.22l-.8-.18c-.32-.14-.65-.36-.99-.65-.68-.58-1.22-1.44-1.61-2.59h-.44l.16,3.42h-3.86l.98-.97c.36-.48.71-1.06,1.04-1.73l-.44-.29c-.49.76-.94,1.29-1.37,1.58-.42.29-.9.44-1.42.44-.84,0-1.56-.36-2.16-1.09-.78-.94-1.21-2.23-1.29-3.85h6.68c-.07-2-.56-3.5-1.47-4.52-.91-1.02-1.98-1.53-3.21-1.53-1.48,0-2.76.6-3.86,1.81-1.1,1.21-1.65,2.83-1.65,4.88,0,1.67.37,3.06,1.12,4.19.23.35.49.65.78.92l.24.17h-4.03l-.67-.24c-.2-.24-.3-.79-.3-1.66v-15.21h-5.1v.49c.57.03.96.17,1.16.41.2.24.3.79.3,1.64v12.67c0,.86-.09,1.4-.26,1.6l-.75.3h-2.34l.23-.19c.22-.23.45-.51.66-.84l-.39-.31c-.23.32-.47.48-.69.48-.11,0-.21-.04-.3-.11-.09-.07-.15-.18-.2-.32-.04-.14-.06-.5-.06-1.05v-4.75c0-1.32-.06-2.16-.18-2.53-.2-.58-.64-1.11-1.31-1.6-.67-.49-1.59-.74-2.74-.74-.96,0-1.88.15-2.76.46-.89.31-1.57.74-2.07,1.32-.49.57-.74,1.17-.74,1.8,0,.44.18.83.55,1.17.37.33.83.5,1.37.5.51,0,.93-.15,1.24-.45.32-.3.47-.67.47-1.09,0-.35-.16-.71-.49-1.09-.24-.27-.37-.5-.37-.68,0-.21.11-.39.34-.55.36-.25.83-.38,1.39-.38.35,0,.66.09.94.27.28.18.47.39.57.63.1.24.15.82.15,1.75v1.23c-2.68,1.24-4.42,2.23-5.22,2.98-.8.75-1.2,1.59-1.2,2.52l.64,1.59h-4l.19-.15c.24-.25.44-.54.61-.87.34-.66.51-1.32.51-2,0-.75-.2-1.43-.61-2.03-.4-.61-1.24-1.34-2.52-2.21-1.28-.87-2.05-1.48-2.33-1.84-.17-.22-.26-.45-.26-.68,0-.31.13-.59.38-.83s.55-.36.91-.36c.57,0,1.13.23,1.7.68.57.45,1.12,1.3,1.65,2.54h.44l-.2-4.18h-.44c-.21.31-.36.49-.46.56-.1.07-.22.1-.38.1-.15,0-.34-.07-.57-.2-.62-.32-1.25-.48-1.91-.48-1.22,0-2.16.38-2.81,1.15-.65.76-.97,1.62-.97,2.56,0,.86.29,1.65.86,2.37.39.49,1.25,1.2,2.58,2.12.9.62,1.48,1.08,1.74,1.39.26.31.39.67.39,1.09,0,.37-.13.68-.4.93l-.94.36h-.22l-.8-.18c-.32-.14-.65-.36-.99-.65-.68-.58-1.22-1.44-1.61-2.59h-.44l.16,3.42h-6.67l-.14-.03c-.2-.11-.36-.28-.46-.52-.06-.14-.09-.46-.09-.96v-.73s-.01-2.81-.01-2.81c0-1.02.14-1.96.42-2.8.18-.55.45-.97.81-1.27.23-.19.46-.29.72-.29.11,0,.21.03.3.08.06.04.26.2.6.5.34.3.74.44,1.2.44.4,0,.74-.16,1.02-.48.28-.32.42-.78.42-1.36,0-.55-.15-.98-.44-1.28-.29-.3-.68-.45-1.17-.45-.56,0-1.15.21-1.76.62-.61.41-1.32,1.26-2.12,2.52v-2.78h-4.97v.48c.42.04.71.12.87.24.16.11.29.29.38.54.07.19.1.64.1,1.33v6.77c0,1.07-.09,1.72-.28,1.97l-.65.26h-2.74l.23-.19c.22-.23.45-.51.66-.84l-.39-.31c-.23.32-.46.48-.69.48-.11,0-.21-.04-.3-.11-.09-.07-.15-.18-.2-.32-.04-.14-.07-.5-.07-1.05v-4.75c0-1.32-.06-2.16-.18-2.53-.2-.58-.63-1.11-1.31-1.6-.67-.49-1.59-.74-2.74-.74-.96,0-1.88.15-2.76.46-.88.31-1.57.74-2.07,1.32-.49.57-.74,1.17-.74,1.8,0,.44.18.83.55,1.17.37.33.83.5,1.37.5.51,0,.93-.15,1.24-.45.32-.3.48-.67.48-1.09,0-.35-.16-.71-.49-1.09-.24-.27-.36-.5-.36-.68,0-.21.11-.39.34-.55.37-.25.83-.38,1.39-.38.35,0,.66.09.94.27.28.18.47.39.56.63.1.24.15.82.15,1.75v1.23c-2.68,1.24-4.42,2.23-5.22,2.98-.8.75-1.2,1.59-1.2,2.52l.64,1.59h-4.43l.92-.78c.36-.4.68-.87.97-1.42l-.4-.31c-.52.56-.97.94-1.35,1.14-.38.2-.79.3-1.21.3-.65,0-1.22-.19-1.69-.56-.63-.52-1.13-1.3-1.5-2.35-.37-1.05-.55-2.15-.55-3.31,0-1.39.23-2.42.68-3.09.29-.44.65-.67,1.07-.67.27,0,.5.11.7.33.2.22.33.6.38,1.15.08.87.28,1.48.62,1.82.33.34.76.51,1.27.51s.88-.15,1.18-.44c.3-.3.45-.69.45-1.19,0-.79-.37-1.5-1.11-2.13-.74-.64-1.74-.96-3-.96-1.87,0-3.35.76-4.41,2.29-.89,1.27-1.33,2.73-1.33,4.4s.49,3.21,1.46,4.44c.24.31.51.58.79.81l.04.03h-4.77l.59-.6c.23-.31.43-.68.61-1.1l-.39-.29c-.5.86-1.04,1.3-1.6,1.3-.14,0-.29-.06-.46-.19-.17-.13-.28-.29-.35-.5-.07-.2-.1-.66-.1-1.37v-7.55h2.89v-1.3h-2.89v-4.48h-.43c-.57,1.06-1.24,2.01-2.01,2.87-.77.85-1.7,1.67-2.79,2.45v.46h1.59v6.61c0,1.31.04,2.11.13,2.41l.9,1.28h-4.21l-.64-.26c-.17-.23-.25-.82-.25-1.76v-4.76c0-1.41-.07-2.37-.21-2.87-.17-.65-.52-1.2-1.04-1.64-.52-.44-1.18-.66-1.97-.66-.66,0-1.28.15-1.85.46-.57.31-1.17.8-1.8,1.49v-1.58h-4.96v.48c.54.07.89.22,1.06.44.17.23.25.8.25,1.73v6.91c0,.94-.07,1.51-.22,1.7l-.71.32h-4.05l.98-.97c.37-.48.71-1.06,1.04-1.73l-.44-.29c-.49.76-.94,1.29-1.37,1.58-.43.29-.9.44-1.42.44-.84,0-1.56-.36-2.16-1.09-.78-.94-1.21-2.23-1.29-3.85h6.68c-.07-2-.56-3.5-1.46-4.52-.91-1.02-1.98-1.53-3.21-1.53-1.48,0-2.76.6-3.86,1.81-1.1,1.21-1.65,2.83-1.65,4.88,0,1.67.37,3.06,1.12,4.19.23.35.49.65.78.92l.24.17h-4.96l-.16-.15c-.69-.4-1.94-.6-3.76-.6l-2.25.03c-.54,0-.93-.1-1.17-.3-.24-.2-.36-.46-.36-.77,0-.36.13-.66.4-.92.26-.26.59-.39.98-.39.99.04,1.51.07,1.56.07.64,0,1.38-.18,2.21-.54.83-.36,1.48-.86,1.97-1.5.48-.64.72-1.4.72-2.27,0-.51-.1-1.01-.31-1.48-.17-.35-.46-.74-.89-1.16h2.33v-1.44h-4.1c-.86-.34-1.69-.51-2.5-.51-1.53,0-2.78.44-3.75,1.32-.97.88-1.46,1.91-1.46,3.11,0,.92.26,1.72.78,2.42.52.7,1.36,1.26,2.53,1.69-1,.42-1.73.91-2.19,1.48-.46.57-.69,1.15-.69,1.75l.06.19h-4.24l.98-.97c.36-.48.71-1.06,1.04-1.73l-.44-.29c-.49.76-.94,1.29-1.37,1.58-.43.29-.9.44-1.42.44-.84,0-1.56-.36-2.16-1.09-.78-.94-1.21-2.23-1.29-3.85h6.68c-.07-2-.56-3.5-1.47-4.52-.91-1.02-1.98-1.53-3.21-1.53-1.47,0-2.76.6-3.86,1.81-1.1,1.21-1.65,2.83-1.65,4.88,0,1.67.37,3.06,1.12,4.19.23.35.49.65.78.92l.24.17h-7.89l-.14-.03c-.21-.11-.36-.28-.46-.52-.06-.14-.09-.46-.09-.96v-.73s-.01-2.81-.01-2.81c0-1.02.14-1.96.42-2.8.18-.55.45-.97.81-1.27.23-.19.46-.29.72-.29.11,0,.21.03.3.08.06.04.26.2.6.5.34.3.74.44,1.2.44.4,0,.74-.16,1.02-.48.28-.32.42-.78.42-1.36,0-.55-.15-.98-.44-1.28-.29-.3-.68-.45-1.16-.45-.56,0-1.15.21-1.76.62-.61.41-1.31,1.25-2.12,2.52v-2.78h-4.97v.48c.42.04.71.12.87.24.17.11.29.29.38.54.07.19.1.64.1,1.33v6.77c0,1.07-.09,1.72-.28,1.97l-.65.26h-3.06l.5-1.2c0-.6-.21-1.12-.63-1.54-.42-.43-.93-.64-1.54-.64s-1.11.21-1.53.64c-.42.43-.63.94-.63,1.54l.49,1.2h-5.65l3.06-8.71c.37-1.08.68-1.74.91-1.97.23-.23.55-.37.95-.43v-.48h-3.61v.48c.48.04.8.13.96.29.16.16.25.41.25.75,0,.23-.11.65-.34,1.28l-1.56,4.4-1.72-4.78c-.25-.65-.38-1.08-.38-1.27s.07-.36.2-.46c.13-.11.44-.18.92-.2v-.48h-6.24v.48c.41.07.71.19.9.37.2.18.42.6.68,1.25l.13.31-1.72,4.78-1.78-4.78c-.28-.74-.42-1.19-.42-1.33,0-.16.08-.3.23-.42.16-.12.44-.18.86-.18v-.48h-6.15v.48c.44.12.77.32.99.6.34.41.75,1.29,1.24,2.64l2.87,7.86h-10.7l3.06-8.71c.37-1.08.68-1.74.91-1.97.23-.23.55-.37.95-.43v-.48h-3.61v.48c.48.04.8.13.96.29.17.16.25.41.25.75,0,.23-.11.65-.34,1.28l-1.56,4.4-1.72-4.78c-.25-.65-.38-1.08-.38-1.27s.07-.36.2-.46c.13-.11.44-.18.92-.2v-.48h-6.24v.48c.41.07.71.19.9.37.2.18.42.6.68,1.25l.13.31-1.72,4.78-1.78-4.78c-.28-.74-.42-1.19-.42-1.33,0-.16.08-.3.23-.42.16-.12.44-.18.86-.18v-.48h-6.15v.48c.44.12.77.32.99.6.34.41.75,1.29,1.24,2.64l2.87,7.86h-10.7l3.06-8.71c.37-1.08.68-1.74.91-1.97.23-.23.55-.37.95-.43v-.48h-3.61v.48c.48.04.8.13.96.29.17.16.25.41.25.75,0,.23-.11.65-.34,1.28l-1.56,4.4-1.72-4.78c-.25-.65-.38-1.08-.38-1.27s.07-.36.2-.46c.13-.11.44-.18.92-.2v-.48h-6.24v.48c.41.07.71.19.9.37.2.18.42.6.68,1.25l.13.31-1.72,4.78-1.78-4.78c-.28-.74-.42-1.19-.42-1.33,0-.16.08-.3.23-.42.16-.12.44-.18.86-.18v-.48h-6.15v.48c.44.12.77.32.99.6.34.41.75,1.29,1.24,2.64l2.87,7.86H1.36v-27.59Z"/>
    </g>
  </g>
</svg>