<?xml version="1.0" encoding="utf-8"?>
<!-- Generator: Adobe Illustrator 28.2.0, SVG Export Plug-In . SVG Version: 6.00 Build 0)  -->
<svg version="1.1" id="Layer_1" xmlns="http://www.w3.org/2000/svg" xmlns:xlink="http://www.w3.org/1999/xlink" x="0px" y="0px"
	 viewBox="0 0 4624 1792" style="enable-background:new 0 0 4624 1792;" xml:space="preserve">
<style type="text/css">
	.st0{fill:#FFFFFF;}
	.st1{font-family:'TimesNewRomanPS-BoldMT';}
	.st2{font-size:853px;}
	.st3{fill-rule:evenodd;clip-rule:evenodd;fill:#FFFFFF;}
</style>
<g transform="translate(182 -436)">
	<text transform="matrix(1 0 0 1 330.115 1516)" class="st0 st1 st2">REGENT</text>
	<path class="st3" d="M2795,1693.7c0.5,4.1,1.5,7.7,3,10.7l2.8,3.6h-25.3l6.1-3.6C2785.9,1701.3,2790.4,1697.8,2795,1693.7z
		 M2355,1693.7c0.5,4.1,1.5,7.7,3,10.7l2.8,3.6h-25.3l6.1-3.6C2345.9,1701.3,2350.4,1697.8,2355,1693.7z M2795,1631.4v50.5
		c-7.1,6-13.3,9-18.7,9c-4.8,0-8.6-1.4-11.3-4.3c-3.5-3.8-5.3-8.1-5.3-13.1c0-5.9,2.1-11.8,6.3-17.6
		C2772.3,1647.2,2782,1639.1,2795,1631.4z M2355,1631.4v50.5c-7.1,6-13.3,9-18.7,9c-4.8,0-8.6-1.4-11.3-4.3
		c-3.6-3.8-5.3-8.1-5.3-13.1c0-5.9,2.1-11.8,6.3-17.6C2332.3,1647.2,2342,1639.1,2355,1631.4z M1032.6,1609.8l36.6,98.2h-72.5
		L1032.6,1609.8z M792,1609.8l36.6,98.2h-72.5L792,1609.8z M551.3,1609.8l36.6,98.2h-72.5L551.3,1609.8z M1919.2,1582.4
		c2.8,0,5.3,0.9,7.7,2.7c2.3,1.8,3.9,4.3,4.9,7.5c1,3.2,1.4,11,1.4,23.4v67.1c0,10.6-0.9,17.3-2.6,20l-8.5,4.9h-18.3l-7.2-3.5
		c-2.1-3-3.2-10.2-3.2-21.4v-80.8C1901.4,1589,1910,1582.4,1919.2,1582.4z M3815.5,1581.8c3.1,0,5.8,0.9,8.1,2.7
		c2.3,1.8,4,4.5,5.1,8.1c1.1,3.7,1.6,12.2,1.6,25.7v64.8c0,10.4-1,17.1-2.9,20c-1.4,2.1-3.3,3.7-5.6,4.9l-0.1,0h-22.4l-9.5-4.5
		c-1.8-2.8-2.7-9.6-2.7-20.5v-81c4.8-6.8,9.6-11.9,14.3-15.2C3806.2,1583.5,3810.9,1581.8,3815.5,1581.8z M3726.9,1581.6
		c2.9,0,5.6,1,8.1,2.9c2.5,1.9,4.3,4.6,5.4,8.1c1.1,3.4,1.6,12,1.6,25.7v64.8c0,8.8-0.4,14.5-1.2,17.2c-0.8,2.6-2.4,4.9-4.8,6.8
		l-3.1,1h-22.3l-8.4-3.9c-2.1-3.4-3.1-10.4-3.1-21v-81c5.7-8.1,11.1-13.8,16.1-17.1C3718.6,1582.7,3722.6,1581.6,3726.9,1581.6z
		 M3543.2,1572.1c4.5,0,8.2,1.1,11,3.4c4,3.1,7,8.1,9,14.9c2,6.8,3.1,19.4,3.1,37.7c0,31.1-1.1,51.7-3.2,61.9
		c-1.4,6.6-4.2,11.7-8.4,15.3l-8,2.7h-10.4l-0.7-0.1c-2.2-1-4.3-2.5-6.2-4.5c-3.9-4-6.4-9.8-7.6-17.4c-1.5-10-2.3-20.8-2.3-32.3
		c0-21.7,0.6-38.7,1.9-50.9c1.2-12.2,3.8-20.4,7.7-24.5C3533,1574.2,3537.7,1572.1,3543.2,1572.1z M3037,1571.1c3.8,0,6.8,1,9,2.9
		c4,3.3,6.9,8.2,8.8,14.7c1.9,6.5,2.8,18.3,2.8,35.7h-43.8v-5.7c0-16.7,3.2-29.8,9.5-39.3C3026.8,1573.9,3031.4,1571.1,3037,1571.1z
		 M1751.4,1571.1c3.8,0,6.8,1,9,2.9c4,3.3,6.9,8.2,8.8,14.7c1.9,6.5,2.8,18.3,2.8,35.7h-43.8v-5.7c0-16.7,3.2-29.8,9.5-39.3
		C1741.3,1573.9,1745.9,1571.1,1751.4,1571.1z M1438.7,1571.1c3.8,0,6.8,1,9,2.9c4,3.3,6.9,8.2,8.8,14.7c1.9,6.5,2.8,18.3,2.8,35.7
		h-43.8v-5.7c0-16.7,3.2-29.8,9.5-39.3C1428.5,1573.9,1433.1,1571.1,1438.7,1571.1z M1587.9,1570.6c6.2,0,11.1,2.6,14.5,7.7
		c4.8,7,7.2,20.1,7.2,39.3c0,17.1-2.1,28.6-6.4,34.5c-4.3,5.9-9.7,8.9-16.1,8.9c-5.8,0-10.8-3-15.1-8.9c-4.2-6-6.4-17-6.4-33
		c0-19.8,2.1-32.8,6.4-39.1C1576.4,1573.8,1581.7,1570.6,1587.9,1570.6z M347,1368h3561v340h-21.5l-8-3.3c-2.1-2.8-3.2-10-3.2-21.6
		v-61.8c0-16.1-1.2-27.9-3.6-35.2s-6.7-13.4-12.9-18.2c-6.2-4.8-14.5-7.2-24.9-7.2c-8.6,0-16.8,2.2-24.7,6.4
		c-7.9,4.3-16.1,11.3-24.7,21c-3.5-9.2-8.6-16.1-15.1-20.7c-6.6-4.5-14.7-6.8-24.3-6.8c-8.4,0-16.1,1.8-23.1,5.4
		c-7,3.6-14.7,9.9-23,18.9v-19.8h-61.4v6c6.7,0.9,11,2.7,13.1,5.5c2.1,2.8,3.1,9.9,3.1,21.3v85.2c0,11.6-0.9,18.6-2.7,21l-8.8,4
		h-59.2l3.4-2.2c3.9-3.3,7.5-7.1,10.8-11.4c10.8-14.4,16.3-32.3,16.3-53.7c0-14.8-2.9-28.5-8.8-41c-5.9-12.5-14.4-22.1-25.7-28.9
		c-11.3-6.8-23.5-10.2-36.6-10.2c-21.8,0-39,8-51.5,24.1c-12.5,16.1-18.8,34.9-18.8,56.5c0,21,6.1,39.4,18.4,55.3
		c3.1,4,6.5,7.5,10.2,10.4l1.5,0.9h-74l11.3-9.6c4.4-5,8.4-10.8,12-17.4l-5-3.9c-6.4,6.9-12,11.6-16.8,14c-4.7,2.5-9.7,3.7-15,3.7
		c-8.1,0-15-2.3-20.9-6.9c-7.8-6.3-14-16-18.5-29c-4.5-13-6.8-26.5-6.8-40.7c0-17.1,2.8-29.8,8.4-38.1c3.6-5.5,8.1-8.2,13.2-8.2
		c3.3,0,6.2,1.3,8.7,4c2.5,2.7,4,7.4,4.7,14.2c1,10.8,3.5,18.2,7.7,22.4c4.1,4.2,9.4,6.3,15.7,6.3c6,0,10.9-1.8,14.6-5.5
		c3.7-3.7,5.6-8.6,5.6-14.7c0-9.7-4.6-18.4-13.8-26.3c-9.2-7.8-21.6-11.8-37.1-11.8c-23.2,0-41.4,9.4-54.6,28.2
		c-11,15.6-16.4,33.7-16.4,54.2c0,21.3,6,39.5,18,54.7c3,3.8,6.3,7.1,9.8,9.9l0.5,0.3h-61.4l6.2-14.8c0-7.4-2.6-13.8-7.8-19
		c-5.2-5.3-11.6-7.9-19.1-7.9c-7.4,0-13.7,2.6-18.9,7.9c-5.2,5.3-7.8,11.6-7.8,19l6.1,14.8h-47.3l2.4-1.8c3-3.1,5.5-6.7,7.6-10.7
		c4.2-8.1,6.3-16.3,6.3-24.7c0-9.2-2.5-17.6-7.5-25.1c-5-7.5-15.4-16.6-31.2-27.3c-15.8-10.7-25.4-18.2-28.8-22.7
		c-2.2-2.7-3.2-5.5-3.2-8.4c0-3.9,1.6-7.3,4.7-10.2c3.1-3,6.9-4.4,11.3-4.4c7,0,14,2.8,21,8.4c7,5.6,13.8,16,20.4,31.3h5.5
		l-2.4-51.5h-5.5c-2.6,3.8-4.5,6.1-5.6,6.9c-1.2,0.8-2.7,1.2-4.7,1.2c-1.8,0-4.2-0.8-7.1-2.4c-7.6-4-15.5-6-23.7-6
		c-15.1,0-26.7,4.7-34.7,14.1s-12,19.9-12,31.5c0,10.7,3.5,20.4,10.6,29.2c4.8,6,15.5,14.7,31.9,26.1c11.2,7.6,18.4,13.3,21.6,17.1
		c3.2,3.8,4.8,8.2,4.8,13.4c0,4.5-1.6,8.4-4.9,11.5l-11.6,4.4h-2.7l-9.9-2.3c-4-1.8-8.1-4.4-12.3-8c-8.4-7.1-15.1-17.7-19.9-31.9
		h-5.5l2,42.2h-47.8l12.1-12c4.5-5.9,8.8-13,12.9-21.3l-5.5-3.6c-6,9.4-11.7,15.8-16.9,19.4c-5.3,3.6-11.1,5.4-17.6,5.4
		c-10.4,0-19.3-4.5-26.8-13.4c-9.7-11.6-15-27.4-15.9-47.4h82.7c-0.9-24.6-6.9-43.2-18.1-55.7c-11.2-12.5-24.5-18.8-39.7-18.8
		c-18.3,0-34.2,7.4-47.8,22.3c-13.6,14.9-20.4,34.9-20.4,60.1c0,20.5,4.6,37.7,13.9,51.6c2.9,4.3,6.1,8.1,9.6,11.3l2.9,2h-49.8
		l-8.3-2.9c-2.5-3-3.7-9.8-3.7-20.4v-187.4h-63.2v6c7.1,0.4,11.9,2.1,14.3,5.1c2.5,2.9,3.7,9.7,3.7,20.2v156.1
		c0,10.6-1.1,17.2-3.2,19.7l-9.3,3.7h-29l2.9-2.4c2.8-2.9,5.5-6.3,8.2-10.3l-4.8-3.9c-2.9,4-5.8,6-8.5,6c-1.4,0-2.6-0.4-3.7-1.3
		c-1.1-0.9-1.9-2.2-2.4-3.9c-0.5-1.8-0.8-6.1-0.8-13v-58.5c0-16.2-0.8-26.6-2.2-31.1c-2.5-7.1-7.9-13.7-16.2-19.8
		c-8.3-6.1-19.6-9.1-33.9-9.1c-11.8,0-23.2,1.9-34.2,5.6c-11,3.8-19.5,9.2-25.6,16.2c-6.1,7.1-9.2,14.4-9.2,22.2
		c0,5.5,2.3,10.3,6.8,14.4c4.6,4.1,10.2,6.1,17,6.1c6.3,0,11.5-1.8,15.4-5.6c3.9-3.7,5.9-8.2,5.9-13.5c0-4.3-2-8.8-6.1-13.4
		c-3-3.3-4.5-6.1-4.5-8.4c0-2.6,1.4-4.8,4.2-6.8c4.5-3.1,10.2-4.7,17.2-4.7c4.3,0,8.2,1.1,11.6,3.3c3.4,2.2,5.8,4.8,7,7.7
		c1.2,3,1.9,10.1,1.9,21.5v15.2c-33.2,15.3-54.7,27.5-64.6,36.7c-9.9,9.2-14.8,19.6-14.8,31.1l7.9,19.6H2674l2.4-1.8
		c2.9-3.1,5.5-6.7,7.6-10.7c4.2-8.1,6.3-16.3,6.3-24.7c0-9.2-2.5-17.6-7.5-25.1c-5-7.5-15.4-16.6-31.2-27.3
		c-15.8-10.7-25.4-18.2-28.8-22.7c-2.1-2.7-3.2-5.5-3.2-8.4c0-3.9,1.6-7.3,4.7-10.2c3.1-3,6.9-4.4,11.3-4.4c7,0,14,2.8,21,8.4
		s13.8,16,20.4,31.3h5.5l-2.4-51.5h-5.5c-2.6,3.8-4.5,6.1-5.6,6.9c-1.2,0.8-2.7,1.2-4.7,1.2c-1.8,0-4.2-0.8-7.1-2.4
		c-7.6-4-15.5-6-23.7-6c-15.2,0-26.7,4.7-34.7,14.1s-12,19.9-12,31.5c0,10.7,3.5,20.4,10.6,29.2c4.8,6,15.5,14.7,31.9,26.1
		c11.2,7.6,18.4,13.3,21.6,17.1c3.2,3.8,4.8,8.2,4.8,13.4c0,4.5-1.6,8.4-4.9,11.5l-11.6,4.4h-2.7l-9.9-2.3c-4-1.8-8.1-4.4-12.3-8
		c-8.4-7.1-15.1-17.8-19.9-31.9h-5.5l2,42.2h-82.6l-1.8-0.3c-2.5-1.3-4.4-3.5-5.7-6.4c-0.8-1.7-1.1-5.7-1.1-11.8l-0.2-9v-34.7
		c0-12.6,1.7-24.1,5.2-34.5c2.2-6.8,5.6-12,10-15.6c2.8-2.4,5.8-3.6,8.9-3.6c1.4,0,2.6,0.3,3.7,1c0.8,0.4,3.2,2.5,7.4,6.1
		c4.2,3.7,9.1,5.5,14.8,5.5c4.9,0,9.2-2,12.6-6c3.5-4,5.2-9.6,5.2-16.8c0-6.8-1.8-12-5.4-15.7c-3.6-3.7-8.4-5.6-14.4-5.6
		c-7,0-14.2,2.5-21.8,7.7c-7.5,5.1-16.3,15.5-26.3,31v-34.2h-61.6v6c5.2,0.5,8.8,1.5,10.8,2.9c2,1.4,3.6,3.6,4.7,6.6
		c0.9,2.4,1.3,7.8,1.3,16.4v83.4c0,13.1-1.2,21.2-3.5,24.3l-8,3.2h-33.9l2.9-2.4c2.8-2.9,5.5-6.3,8.2-10.3l-4.8-3.9
		c-2.9,4-5.8,6-8.5,6c-1.4,0-2.6-0.4-3.7-1.3c-1.1-0.9-1.9-2.2-2.4-3.9c-0.5-1.8-0.8-6.1-0.8-13v-58.5c0-16.2-0.8-26.6-2.3-31.1
		c-2.5-7.1-7.9-13.7-16.2-19.8c-8.3-6.1-19.6-9.1-33.9-9.1c-11.8,0-23.2,1.9-34.2,5.6c-11,3.8-19.5,9.2-25.6,16.2
		c-6.1,7.1-9.2,14.4-9.2,22.2c0,5.5,2.3,10.3,6.8,14.4c4.6,4.1,10.2,6.1,17,6.1c6.3,0,11.5-1.8,15.4-5.6c3.9-3.7,5.9-8.2,5.9-13.5
		c0-4.3-2-8.8-6.1-13.4c-3-3.3-4.5-6.1-4.5-8.4c0-2.6,1.4-4.8,4.2-6.8c4.5-3.1,10.3-4.7,17.2-4.7c4.3,0,8.2,1.1,11.6,3.3
		c3.4,2.2,5.8,4.8,7,7.7c1.2,3,1.9,10.1,1.9,21.5v15.2c-33.2,15.3-54.7,27.5-64.6,36.7c-9.9,9.2-14.8,19.6-14.8,31.1l7.9,19.6h-54.8
		l11.3-9.6c4.4-5,8.4-10.8,11.9-17.4l-5-3.9c-6.4,6.9-12,11.6-16.8,14c-4.7,2.5-9.7,3.7-15,3.7c-8.1,0-15-2.3-20.9-6.9
		c-7.8-6.3-14-16-18.5-29c-4.5-13-6.8-26.5-6.8-40.7c0-17.1,2.8-29.8,8.4-38.1c3.7-5.5,8.1-8.2,13.2-8.2c3.3,0,6.2,1.3,8.7,4
		c2.5,2.7,4,7.4,4.7,14.2c1,10.8,3.5,18.2,7.6,22.4c4.1,4.2,9.4,6.3,15.7,6.3c6,0,10.9-1.8,14.6-5.5c3.7-3.7,5.6-8.6,5.6-14.7
		c0-9.7-4.6-18.4-13.8-26.3c-9.2-7.8-21.6-11.8-37.1-11.8c-23.2,0-41.4,9.4-54.6,28.2c-11,15.6-16.4,33.7-16.4,54.2
		c0,21.3,6,39.5,18,54.7c3,3.8,6.3,7.1,9.8,9.9l0.5,0.3h-59.1l7.3-7.4c2.9-3.9,5.4-8.4,7.6-13.6l-4.8-3.5c-6.2,10.6-12.8,16-19.8,16
		c-1.7,0-3.6-0.8-5.6-2.3c-2-1.6-3.5-3.6-4.3-6.1c-0.8-2.5-1.2-8.1-1.2-16.9v-93.1h35.8v-16h-35.8V1510h-5.3
		c-7.1,13-15.4,24.8-24.9,35.3c-9.5,10.5-21,20.6-34.6,30.2v5.6h19.7v81.5c0,16.1,0.5,26,1.6,29.7l11.2,15.8h-52.1l-7.9-3.2
		c-2.1-2.8-3.1-10.1-3.1-21.7v-58.7c0-17.4-0.9-29.2-2.6-35.3c-2.2-8.1-6.5-14.8-12.9-20.2c-6.5-5.4-14.6-8.1-24.3-8.1
		c-8.2,0-15.8,1.9-22.9,5.7c-7.1,3.8-14.5,9.9-22.2,18.3v-19.5h-61.4v6c6.7,0.9,11,2.7,13.1,5.5c2.1,2.8,3.1,9.9,3.1,21.3v85.2
		c0,11.6-0.9,18.6-2.7,21l-8.8,4h-50.1l12.1-12c4.5-5.9,8.8-13,12.9-21.3l-5.5-3.6c-6,9.4-11.7,15.8-16.9,19.4
		c-5.3,3.6-11.1,5.4-17.6,5.4c-10.4,0-19.3-4.5-26.7-13.4c-9.7-11.6-15-27.4-15.9-47.4h82.6c-0.9-24.6-6.9-43.2-18.1-55.7
		c-11.2-12.5-24.5-18.8-39.7-18.8c-18.3,0-34.2,7.4-47.8,22.3c-13.6,14.9-20.4,34.9-20.4,60.1c0,20.5,4.6,37.7,13.9,51.6
		c2.9,4.3,6.1,8.1,9.6,11.3l3,2h-61.4l-1.9-1.9c-8.5-4.9-24-7.4-46.6-7.4l-27.9,0.3c-6.7,0-11.5-1.2-14.4-3.7
		c-3-2.5-4.4-5.6-4.4-9.5c0-4.4,1.6-8.2,4.9-11.4c3.3-3.2,7.3-4.8,12.2-4.8c12.2,0.5,18.7,0.8,19.3,0.8c7.9,0,17-2.2,27.3-6.7
		c10.3-4.5,18.4-10.6,24.3-18.5c6-7.9,8.9-17.2,8.9-28c0-6.3-1.3-12.4-3.9-18.2c-2.1-4.3-5.7-9.1-11-14.3h28.8v-17.7h-50.8
		c-10.6-4.2-21-6.3-30.9-6.3c-18.9,0-34.4,5.4-46.4,16.2c-12,10.8-18,23.6-18,38.3c0,11.3,3.2,21.2,9.7,29.8
		c6.4,8.6,16.9,15.5,31.3,20.8c-12.4,5.2-21.4,11.2-27.1,18.2s-8.5,14.2-8.5,21.6l0.8,2.4h-52.5l12.1-12c4.5-5.9,8.8-13,12.9-21.3
		l-5.5-3.6c-6,9.4-11.7,15.8-16.9,19.4c-5.3,3.6-11.1,5.4-17.6,5.4c-10.4,0-19.3-4.5-26.7-13.4c-9.7-11.6-15-27.4-16-47.4h82.7
		c-0.9-24.6-6.9-43.2-18.1-55.7c-11.2-12.5-24.5-18.8-39.7-18.8c-18.3,0-34.2,7.4-47.8,22.3c-13.6,14.9-20.4,34.9-20.4,60.1
		c0,20.5,4.6,37.7,13.9,51.6c2.9,4.3,6.1,8.1,9.6,11.3l2.9,2h-97.7l-1.8-0.3c-2.5-1.3-4.4-3.5-5.7-6.4c-0.8-1.7-1.1-5.7-1.1-11.8
		l-0.2-9v-34.7c0-12.6,1.7-24.1,5.2-34.5c2.3-6.8,5.6-12,10-15.6c2.8-2.4,5.8-3.6,8.9-3.6c1.4,0,2.6,0.3,3.7,1
		c0.8,0.4,3.2,2.5,7.4,6.1c4.2,3.7,9.1,5.5,14.8,5.5c4.9,0,9.2-2,12.6-6c3.5-4,5.2-9.6,5.2-16.8c0-6.8-1.8-12-5.4-15.7
		c-3.6-3.7-8.4-5.6-14.4-5.6c-7,0-14.2,2.5-21.8,7.7c-7.5,5.1-16.3,15.4-26.3,31v-34.2h-61.6v6c5.2,0.5,8.8,1.5,10.8,2.9
		c2.1,1.4,3.6,3.6,4.7,6.6c0.9,2.4,1.3,7.8,1.3,16.4v83.4c0,13.1-1.2,21.2-3.5,24.3l-8,3.2h-37.9l6.2-14.8c0-7.4-2.6-13.8-7.8-19
		c-5.2-5.3-11.6-7.9-19.1-7.9c-7.4,0-13.7,2.6-18.9,7.9c-5.2,5.3-7.8,11.6-7.8,19l6.1,14.8h-70l37.8-107.4
		c4.6-13.3,8.4-21.4,11.3-24.3s6.8-4.6,11.8-5.2v-6h-44.6v6c5.9,0.4,9.9,1.6,11.9,3.6c2,1.9,3.1,5,3.1,9.2c0,2.8-1.4,8.1-4.2,15.8
		l-19.3,54.2l-21.3-58.9c-3.1-8.1-4.7-13.3-4.7-15.6c0-2.5,0.8-4.4,2.4-5.7c1.6-1.3,5.4-2.2,11.4-2.5v-6h-77.2v6
		c5,0.9,8.8,2.4,11.2,4.6c2.4,2.2,5.2,7.3,8.5,15.4l1.6,3.9l-21.3,58.9l-22.1-58.9c-3.4-9.1-5.2-14.6-5.2-16.4c0-1.9,1-3.7,2.9-5.2
		c1.9-1.5,5.5-2.3,10.6-2.3v-6h-76v6c5.5,1.5,9.6,4,12.2,7.4c4.2,5,9.3,15.9,15.3,32.6l35.5,96.9H846.8l37.8-107.4
		c4.6-13.3,8.4-21.4,11.3-24.3c2.9-2.8,6.8-4.6,11.8-5.2v-6H863v6c5.9,0.4,9.9,1.6,11.9,3.6c2,1.9,3.1,5,3.1,9.2
		c0,2.8-1.4,8.1-4.2,15.8l-19.3,54.2l-21.3-58.9c-3.1-8.1-4.7-13.3-4.7-15.6c0-2.5,0.8-4.4,2.4-5.7c1.6-1.3,5.4-2.2,11.4-2.5v-6
		h-77.2v6c5,0.9,8.8,2.4,11.2,4.6c2.4,2.2,5.2,7.3,8.5,15.4l1.6,3.9l-21.3,58.9l-22.1-58.9c-3.4-9.1-5.2-14.6-5.2-16.4
		c0-1.9,1-3.7,2.9-5.2c1.9-1.5,5.5-2.3,10.6-2.3v-6h-76v6c5.5,1.5,9.6,4,12.2,7.4c4.2,5,9.3,15.9,15.3,32.6l35.5,96.9H606.2
		l37.8-107.4c4.6-13.3,8.4-21.4,11.3-24.3c2.9-2.8,6.8-4.6,11.8-5.2v-6h-44.6v6c5.9,0.4,9.9,1.6,11.9,3.6c2,1.9,3.1,5,3.1,9.2
		c0,2.8-1.4,8.1-4.2,15.8l-19.3,54.2l-21.3-58.9c-3.1-8.1-4.7-13.3-4.7-15.6c0-2.5,0.8-4.4,2.4-5.7c1.6-1.3,5.4-2.2,11.4-2.5v-6
		h-77.2v6c5,0.9,8.8,2.4,11.2,4.6c2.4,2.2,5.2,7.3,8.5,15.4l1.6,3.9l-21.3,58.9l-22.1-58.9c-3.4-9.1-5.2-14.6-5.2-16.4
		c0-1.9,1-3.7,2.9-5.2c1.9-1.5,5.5-2.3,10.6-2.3v-6h-76.1v6c5.5,1.5,9.6,4,12.2,7.4c4.2,5,9.3,15.9,15.3,32.6l35.5,96.9H347V1368z"
		/>
</g>
</svg>
