<svg xmlns="http://www.w3.org/2000/svg" width="524.12" height="604" viewBox="0 0 524.12 604"><path d="M761.54,386.18C741,317.41,702.81,262.51,637.1,230.08c-52.48-25.89-108.6-31.81-166-25.35-98.93,11.11-168.54,62-202.28,156.5C237,450.07,237.19,540.62,264.2,630.68,282,689.94,316.1,737.8,370.79,769c43,24.56,90,33,159.58,33,49.48.22,112-18.42,162-70.71,67.19-70.1,66.14-199-44-250.66-6.41-3-8.43-6.62-8.93-13.27-1.49-20.2-6.05-39.77-14.92-58.11-22.29-46.09-61.16-65.64-110.36-66.91-44.74-1.17-82.77,13.69-110.8,50.23-3.52,4.59-3.23,6.92,1.52,10,10.24,6.62,20.46,13.36,30.18,20.72,5.49,4.15,8.26,3.25,12.65-1.83,22.65-26.18,52.28-30,84.08-24.05,30.27,5.66,45.7,26.23,53,54.78,2,8-.32,9-7.24,8-23.93-3.74-48-3.7-72.08-1.83-24.37,1.9-47.31,8.6-68.15,21.67-46.09,28.9-59.2,89.69-28.05,134.09,21,30,51.93,43,87.39,45.34,48.71,3.16,90-11.31,117.65-54.17,12.19-18.86,18.73-39.94,22.2-62,1-6.45,2.25-8.63,8.8-4,31.9,22.62,47,60.86,38.61,99.14-10.1,45.87-40.58,74.56-81.25,93.33C563.26,750,521,751.93,478.49,747.52c-81.89-8.47-138.23-50.43-163.63-129.75-23.8-74.31-23.79-149.57-2.18-224.29,18.66-64.54,58.63-110.14,125-128.58a261.64,261.64,0,0,1,148.48,1.76c45.5,13.83,80.4,41.49,103.81,83.25A237.72,237.72,0,0,1,710.66,399c1.17,4,1.93,6.63,7.13,5.11,13-3.78,26.09-7.19,39.19-10.5C761.29,392.53,763,391.11,761.54,386.18ZM587.41,521.38c-2.57,18.35-5.81,36.41-15.27,52.77-8.87,15.32-21.6,25.59-38.84,29.78-21.07,5.13-42,4.84-61.87-4.54-15.23-7.17-25.61-18.51-26.52-36.31-.93-18.05,7.81-30.86,22.66-39.91,16.29-9.93,34.64-12,53.16-13,4.6-.25,9.23-.05,13.85-.05,15.55-.43,30.89,1.67,46.24,3.86C585.25,514.64,588.2,515.74,587.41,521.38Z" transform="translate(-237.94 -198)"/><path d="M755.06,381.85c-20.54-68.76-58.74-123.66-124.44-156.09-52.48-25.9-108.6-31.81-166-25.36-98.94,11.12-168.54,62-202.29,156.5-31.73,88.84-31.57,179.4-4.57,269.46,17.77,59.26,51.91,107.12,106.6,138.36,43,24.56,90,33,159.58,33,49.47.22,112-18.43,162-70.71,67.19-70.11,66.14-199-44-250.66-6.42-3-8.44-6.62-8.93-13.27-1.5-20.2-6.06-39.77-14.93-58.11-22.29-46.09-61.15-65.64-110.35-66.91-44.74-1.17-82.78,13.69-110.81,50.23-3.52,4.59-3.23,6.91,1.53,10,10.24,6.63,20.45,13.37,30.18,20.73,5.49,4.15,8.25,3.25,12.65-1.83,22.65-26.18,52.27-30,84.07-24.05,30.28,5.66,45.71,26.22,53,54.78,2.06,8-.31,9-7.23,7.95-23.94-3.73-48-3.69-72.09-1.82-24.36,1.9-47.3,8.6-68.14,21.67-46.1,28.9-59.2,89.69-28,134.08,21,30,51.93,43.06,87.39,45.35,48.71,3.16,90-11.31,117.64-54.17,12.19-18.86,18.74-39.94,22.21-62,1-6.45,2.25-8.64,8.79-4,31.91,22.61,47.06,60.85,38.62,99.14-10.1,45.86-40.58,74.56-81.25,93.33-39.47,18.22-81.73,20.2-124.24,15.79-81.89-8.47-138.23-50.43-163.63-129.75-23.81-74.31-23.79-149.58-2.18-224.29,18.66-64.54,58.62-110.14,125-128.58a261.43,261.43,0,0,1,148.47,1.76c45.5,13.83,80.4,41.49,103.82,83.25a237.81,237.81,0,0,1,20.67,49.1c1.17,3.95,1.92,6.62,7.13,5.11,13-3.78,26.08-7.2,39.19-10.5C754.81,388.21,756.53,386.79,755.06,381.85ZM580.93,517.06c-2.58,18.34-5.82,36.41-15.27,52.77-8.87,15.32-21.6,25.59-38.85,29.78-21.07,5.13-41.95,4.84-61.87-4.54-15.22-7.17-25.6-18.51-26.51-36.32-.93-18,7.81-30.86,22.66-39.9,16.29-9.93,34.64-12,53.16-13,4.6-.24,9.22,0,13.85,0,15.55-.43,30.89,1.66,46.23,3.86C578.76,510.31,581.71,511.42,580.93,517.06Z" transform="translate(-237.94 -198)" fill="#efefef"/></svg>