<?xml version="1.0" ?><!DOCTYPE svg  PUBLIC '-//W3C//DTD SVG 1.1//EN'  'http://www.w3.org/Graphics/SVG/1.1/DTD/svg11.dtd'><svg enable-background="new 0 0 100 100" height="100px" id="Layer_1" version="1.1" viewBox="0 0 100 100" width="100px" xml:space="preserve" xmlns="http://www.w3.org/2000/svg" xmlns:xlink="http://www.w3.org/1999/xlink"><g><path d="M50.872,44.545c-0.825-0.475-1.662-0.915-2.442-1.464c-0.747-0.525-1.396-1.05-2.148-1.562   C45.881,41.246,45,40.978,45,40.716c0,0.386,0,1.934,0,2.148c0,1.239-0.094,7.613-0.08,8.412c0.02,1.337-0.084,2.674-0.035,4.011   c0.046,1.275,0.054,2.493,0.01,3.825c0,0,3.185-1.547,3.61-1.814c1.634-1.029,3.235-2.146,4.909-3.102   c0.823-0.47,1.674-0.886,2.46-1.417c0.714-0.485,3.481-2.812,3.577-2.753c-1.278-0.781-2.517-1.598-3.849-2.289   C53.898,46.853,52.532,45.5,50.872,44.545z" fill="#C12025"/><path d="M50,3.84C24.506,3.84,3.84,24.506,3.84,50S24.506,96.16,50,96.16S96.16,75.494,96.16,50   S75.494,3.84,50,3.84z M75.354,60.014c-0.477,2.246-1.078,4.595-2.618,6.369c-1.671,1.922-4.549,1.416-6.848,1.582   c-5.589,0.404-11.166,0.026-16.759,0.173c-2.299,0.061-4.566,0.008-6.859-0.106c-2.282-0.114-4.669,0.13-6.95-0.054   c-1.384-0.113-2.777-0.116-4.156-0.286c-1.106-0.136-2.778-0.297-3.615-1.133c-0.407-0.406-0.54-1.037-0.893-1.511l-0.509-0.888   c-2.191-4.672-2.147-9.816-2.156-14.92c-0.005-1.896,0.225-3.782,0.174-5.68c-0.033-1.225,0.523-2.385,0.599-3.618   c0.078-1.236,0.311-2.427,0.909-3.5c1.164-2.087,1.753-3.067,3.916-3.952c1.083-0.444,3.101-0.568,4.261-0.546   c1.381,0.024,2.765,0.018,4.144,0.002c2.804-0.034,5.604-0.117,8.407-0.108c2.438,0.007,4.907,0.019,7.339,0.171   c2.435,0.15,4.88-0.083,7.322-0.021c2.012,0.051,4.028,0.047,6.036,0.195c1.503,0.111,3.255,0.294,4.561,1.129   c0.784,0.501,1.656,1.17,2.009,1.992c1.026,2.389,1.88,4.808,2.024,7.422c0.148,2.678,0.182,5.36,0.255,8.04   c0.013,0.462,0.027,0.925,0.042,1.387C76.078,54.78,75.897,57.441,75.354,60.014z" fill="#C12025"/></g></svg>